<mxfile host="app.diagrams.net" modified="2024-09-30T00:03:35.128Z" agent="Mozilla/5.0 (Windows NT 10.0; Win64; x64) AppleWebKit/537.36 (KHTML, like Gecko) Chrome/129.0.0.0 Safari/537.36" version="24.7.1" etag="qyqZgHDeY67NDj1TnHzl" type="github">
  <diagram name="Page-1" id="lCiLB2_3WUEgnxJsEd0b">
    <mxGraphModel>
      <root>
        <mxCell id="0" />
        <mxCell id="1" parent="0" />
      </root>
    </mxGraphModel>
  </diagram>
</mxfile>
